<svg xmlns="http://www.w3.org/2000/svg"  viewBox="0 0 50 50" width="50px" height="50px"><path d="M43 11.11v27.6c0 2.54-1.73 4.77-4.21 5.43l-8.63 2.41c.5-.94.78-2.02.78-3.16V5.65c0-.86-.19-1.68-.53-2.42l8.45 2.47C41.29 6.37 43 8.6 43 11.11zM28.94 37v6.39c0 1.99-1.19 3.72-2.96 4.33-.43.1-.87.15-1.31.15-1 0-2-.26-2.92-.76L13.45 42c-1.04-.64-1.52-1.86-1.19-3.04.33-1.17 1.38-1.96 2.6-1.96H28.94zM28.94 5.65v5.72l-10.28 3.64c-.99.36-1.66 1.3-1.66 2.36v13.36c0 1.09-.59 2.1-1.54 2.62l-4.07 2.27C10.94 35.88 10.44 36 9.95 36c-.51 0-1.03-.14-1.49-.41C7.54 35.05 7 34.1 7 33.05V14.83c0-1.93 1.04-3.72 2.72-4.68L22.8 2.71c1.08-.61 2.28-.83 3.45-.65.07.06.16.11.26.14C27.72 2.6 28.94 3.82 28.94 5.65z"/></svg>